<svg xmlns="http://www.w3.org/2000/svg" width="80.903" height="107.742" viewBox="0 0 80.903 107.742">
  <g id="ico-cup" transform="translate(-23.55 -306.129)">
    <path id="Path_386" data-name="Path 386" d="M82.962,364.5a26.888,26.888,0,0,0,7.327-13.514,15.7,15.7,0,0,0,.562-31.192v-2.037h1.726a5.8,5.8,0,0,0,4.1-1.7l0,0,0,0,0,0a5.775,5.775,0,0,0,0-8.194l0,0,0,0,0,0a5.8,5.8,0,0,0-4.1-1.706H35.426a5.8,5.8,0,0,0-4.1,1.706l0,0,0,0,0,0a5.775,5.775,0,0,0,0,8.194l0,0,0,0,0,0a5.8,5.8,0,0,0,4.1,1.7h1.727v2.037a15.7,15.7,0,0,0,.561,31.192A27.015,27.015,0,0,0,58.2,371.746v14.441H50.429a13.31,13.31,0,0,0-13.276,13.276v2.784H35.426a5.8,5.8,0,0,0-4.1,1.706l0,0,0,0,0,0a5.775,5.775,0,0,0,0,8.194l0,0,0,0,0,0a5.8,5.8,0,0,0,4.1,1.7H92.577a5.8,5.8,0,0,0,4.1-1.7l0,0,0,0,0,0a5.775,5.775,0,0,0,0-8.194l0,0,0,0,0,0a5.8,5.8,0,0,0-4.1-1.706H90.851v-2.784a13.312,13.312,0,0,0-13.277-13.276H69.806V371.746A26.9,26.9,0,0,0,82.962,364.5ZM96.883,327.22a11.5,11.5,0,0,1-6.033,19.444V324.043A11.473,11.473,0,0,1,96.883,327.22Zm-59.73,19.444a11.5,11.5,0,0,1,0-22.621v22.621Zm-1.727-33.112a1.6,1.6,0,0,1-1.136-.467l-.008-.008a1.615,1.615,0,0,1,0-2.272l.008-.008a1.6,1.6,0,0,1,1.136-.467H92.577a1.6,1.6,0,0,1,1.137.467l.008.008a1.618,1.618,0,0,1,0,2.272l-.008.008a1.6,1.6,0,0,1-1.137.467H35.426Zm53.324,92.9h3.827a1.6,1.6,0,0,1,1.137.467l.008.008a1.618,1.618,0,0,1,0,2.272l-.008.008a1.6,1.6,0,0,1-1.137.467H35.426a1.6,1.6,0,0,1-1.136-.467l-.008-.008a1.615,1.615,0,0,1,0-2.272l.008-.008a1.6,1.6,0,0,1,1.136-.467H88.75Zm-11.176-16.06a9.108,9.108,0,0,1,9.075,9.075v2.784h-45.3v-2.784a9.108,9.108,0,0,1,9.075-9.075ZM65.605,372.336v13.851H62.4V372.336C62.744,372.357,65.259,372.357,65.605,372.336Zm-1.311-4.154h-.585a22.733,22.733,0,0,1-22.355-22.61V317.753h45.3v27.819a22.733,22.733,0,0,1-22.355,22.61Z" fill="#fff"/>
    <path id="Path_387" data-name="Path 387" d="M76.771,352.925h0l-2.3-7.016,5.979-4.326a4.427,4.427,0,0,0-2.914-8h0l-7.066.014-2.266-7.019a4.33,4.33,0,0,0-1.843-2.4A4.439,4.439,0,0,0,64,323.522h0a4.441,4.441,0,0,0-2.361.662,4.334,4.334,0,0,0-1.843,2.4L57.53,333.6l-7.066-.014h0a4.428,4.428,0,0,0-2.914,8l5.979,4.326-2.3,7.016h0a1.864,1.864,0,0,0-.059.219,4.435,4.435,0,0,0-.1,1.843,4.412,4.412,0,0,0,6.956,2.872L64,353.506l5.967,4.353a4.414,4.414,0,0,0,6.86-4.715A2.079,2.079,0,0,0,76.771,352.925Zm-5.991-9.517a2.1,2.1,0,0,0-.764,2.346l2.731,8.35q.015.055.033.111a.275.275,0,0,1,.011.116.231.231,0,0,1-.039.1.225.225,0,0,1-.145.09.243.243,0,0,1-.177-.039l-7.17-5.231A2.09,2.09,0,0,0,64,348.831h0a2.09,2.09,0,0,0-1.257.417l-7.17,5.231a.243.243,0,0,1-.177.039.227.227,0,0,1-.145-.09.217.217,0,0,1-.038-.1.246.246,0,0,1,.011-.116c.011-.037.022-.074.032-.111l2.731-8.35a2.1,2.1,0,0,0-.764-2.346h0l-7.216-5.221a.229.229,0,0,1-.1-.148.239.239,0,0,1,.044-.175.218.218,0,0,1,.081-.071.266.266,0,0,1,.128-.024,2.19,2.19,0,0,0,.292,0l8.6.016a2.093,2.093,0,0,0,1.993-1.452h0l2.735-8.475a.2.2,0,0,1,.072-.114A.272.272,0,0,1,64,327.7h0a.27.27,0,0,1,.144.04.2.2,0,0,1,.072.114l2.736,8.475h0a2.094,2.094,0,0,0,1.993,1.452l8.6-.016a2.19,2.19,0,0,0,.292,0,.266.266,0,0,1,.128.024.218.218,0,0,1,.081.071.239.239,0,0,1,.044.175.229.229,0,0,1-.1.148l-7.216,5.221Z" fill="#fff"/>
  </g>
</svg>
