<svg xmlns="http://www.w3.org/2000/svg" width="112.5" height="113" viewBox="0 0 112.5 113">
  <g id="ico-fireworks" transform="translate(-7.75 -7.5)">
    <path id="Path_347" data-name="Path 347" d="M91.5,62h-55a1.75,1.75,0,0,0-1.565,2.533l27.5,55a1.75,1.75,0,0,0,3.13,0l27.5-55A1.75,1.75,0,0,0,91.5,62Zm-2.832,3.5L85.918,71H42.082l-2.75-5.5ZM64,114.837,43.832,74.5H84.168Z" fill="#fff"/>
    <path id="Path_348" data-name="Path 348" d="M60.663,54.09a1.75,1.75,0,1,0,1.107,3.32c2.063-.687,4.922-3.552,6.157-7.505a13.321,13.321,0,0,0-2.311-12.2,10.229,10.229,0,0,1-.066-12.817,1.75,1.75,0,0,0-2.662-2.272A13.7,13.7,0,0,0,62.816,39.8a9.736,9.736,0,0,1,1.77,9.062C63.632,51.917,61.526,53.8,60.663,54.09Z" fill="#fff"/>
    <path id="Path_349" data-name="Path 349" d="M36.126,57.35c1.265-1.769,1.9-5.767.571-9.691a13.324,13.324,0,0,0-9.042-8.518A10.228,10.228,0,0,1,20.07,28.81a1.75,1.75,0,0,0-3.489-.274,13.694,13.694,0,0,0,10.043,13.95,9.735,9.735,0,0,1,6.757,6.292c1.023,3.032.428,5.8-.1,6.536a1.75,1.75,0,0,0,2.847,2.036Z" fill="#fff"/>
    <path id="Path_350" data-name="Path 350" d="M111.419,28.536a1.75,1.75,0,0,0-3.488.281,10.133,10.133,0,0,1-7.586,10.324A13.324,13.324,0,0,0,91.3,47.659c-1.324,3.924-.694,7.922.571,9.691a1.75,1.75,0,0,0,2.847-2.036c-.53-.741-1.125-3.5-.1-6.536a9.735,9.735,0,0,1,6.757-6.292A13.694,13.694,0,0,0,111.419,28.536Z" fill="#fff"/>
    <path id="Path_351" data-name="Path 351" d="M30.192,19.7l4.691,2.957.223,5.542a1.752,1.752,0,0,0,2.869,1.275l4.262-3.548,5.34,1.5a1.75,1.75,0,0,0,2.1-2.334L47.618,19.94l3.077-4.614a1.75,1.75,0,0,0-1.572-2.717l-5.534.365L40.151,8.622a1.75,1.75,0,0,0-3.069.654l-1.363,5.376-5.2,1.925a1.75,1.75,0,0,0-.326,3.122Zm7.6-2.084A1.748,1.748,0,0,0,38.885,16.4l.718-2.83,1.811,2.291a1.739,1.739,0,0,0,1.488.661l2.913-.192-1.62,2.431a1.752,1.752,0,0,0-.169,1.619L45.109,23.1,42.3,22.307a1.746,1.746,0,0,0-1.593.339l-2.244,1.868L38.343,21.6a1.749,1.749,0,0,0-.815-1.41l-2.47-1.557Z" fill="#fff"/>
    <path id="Path_352" data-name="Path 352" d="M48.813,44.326l-3-12a1.75,1.75,0,0,0-3.4.848l3,12a1.752,1.752,0,0,0,1.7,1.327,1.788,1.788,0,0,0,.426-.053A1.751,1.751,0,0,0,48.813,44.326Z" fill="#fff"/>
    <path id="Path_353" data-name="Path 353" d="M48.421,49.266a1.749,1.749,0,0,0-1.273,2.122l1,4a1.751,1.751,0,0,0,1.7,1.326,1.752,1.752,0,0,0,1.7-2.175l-1-4A1.749,1.749,0,0,0,48.421,49.266Z" fill="#fff"/>
    <path id="Path_354" data-name="Path 354" d="M80.382,19.94l-2.057,5.151a1.75,1.75,0,0,0,2.1,2.334l5.34-1.5,4.262,3.548A1.751,1.751,0,0,0,92.894,28.2l.223-5.542L97.808,19.7a1.75,1.75,0,0,0-.326-3.122l-5.2-1.925L90.918,9.276a1.75,1.75,0,0,0-3.069-.654l-3.438,4.352-5.534-.365a1.769,1.769,0,0,0-1.631.87,1.75,1.75,0,0,0,.059,1.847ZM85.1,16.526a1.744,1.744,0,0,0,1.488-.661L88.4,13.574l.718,2.83A1.748,1.748,0,0,0,90.2,17.615l2.738,1.014-2.47,1.557a1.749,1.749,0,0,0-.815,1.41l-.118,2.918-2.244-1.868a1.745,1.745,0,0,0-1.593-.339l-2.811.789,1.083-2.712a1.749,1.749,0,0,0-.169-1.619l-1.62-2.431Z" fill="#fff"/>
    <path id="Path_355" data-name="Path 355" d="M82.187,32.326l-3,12a1.751,1.751,0,0,0,1.273,2.122,1.794,1.794,0,0,0,.426.053,1.752,1.752,0,0,0,1.7-1.327l3-12a1.75,1.75,0,0,0-3.4-.848Z" fill="#fff"/>
    <path id="Path_356" data-name="Path 356" d="M77.73,56.661a1.746,1.746,0,0,0,2.122-1.273l1-4a1.75,1.75,0,1,0-3.395-.849l-1,4A1.749,1.749,0,0,0,77.73,56.661Z" fill="#fff"/>
    <path id="Path_357" data-name="Path 357" d="M21.037,47.753a1.749,1.749,0,0,0-2.475,0l-4.3,4.3a1.748,1.748,0,0,0,0,2.474l4.3,4.3a1.752,1.752,0,0,0,2.475,0l4.3-4.3a1.75,1.75,0,0,0,0-2.474ZM19.8,55.117l-1.825-1.826L19.8,51.465l1.826,1.826Z" fill="#fff"/>
    <path id="Path_358" data-name="Path 358" d="M109.438,47.753a1.8,1.8,0,0,0-2.475,0l-4.3,4.3a1.748,1.748,0,0,0,0,2.474l4.3,4.3a1.752,1.752,0,0,0,2.475,0l4.3-4.3a1.75,1.75,0,0,0,0-2.474ZM108.2,55.117l-1.826-1.826,1.826-1.826,1.825,1.826Z" fill="#fff"/>
    <path id="Path_359" data-name="Path 359" d="M18.25,12.75A5.25,5.25,0,1,0,13,18,5.256,5.256,0,0,0,18.25,12.75ZM13,14.5a1.75,1.75,0,1,1,1.75-1.75A1.752,1.752,0,0,1,13,14.5Z" fill="#fff"/>
    <path id="Path_360" data-name="Path 360" d="M115,7.5a5.25,5.25,0,1,0,5.25,5.25A5.256,5.256,0,0,0,115,7.5Zm0,7a1.75,1.75,0,1,1,1.75-1.75A1.752,1.752,0,0,1,115,14.5Z" fill="#fff"/>
  </g>
</svg>
