<svg xmlns="http://www.w3.org/2000/svg" width="108.445" height="72.599" viewBox="0 0 108.445 72.599">
  <g id="ico-meat" transform="translate(-601.802 -175.712)">
    <path id="Path_361" data-name="Path 361" d="M709.9,202.3l0-.015a15.878,15.878,0,0,0-.68-4.207c-1.361-4.466-5.941-12.414-21.325-15.452l-4.029-.8c-15.43-3.074-32.921-6.559-47.922-6.072-11.525.371-22.088,5.768-28.254,14.437a27.706,27.706,0,0,0-4.978,12.291c-.66,3.576-5.717,34.963,17.807,43.265a42.207,42.207,0,0,0,14.158,2.56c11.115,0,19.913-4.913,27.939-9.394,7.31-4.081,13.624-7.606,20.315-6.639,8.965,1.3,15.937-.4,20.732-5.049C709,222.051,711.157,213.432,709.9,202.3Zm-99.362-10.08c5.537-7.784,15.076-12.632,25.517-12.968q1.365-.043,2.761-.044c13.987,0,30.07,3.2,44.364,6.05l4.034.8c13.594,2.686,17.522,9.322,18.654,13.039a12.591,12.591,0,0,1-3.209,12.565c-3.912,3.918-9.769,5.073-16.072,3.168-11.69-3.539-17.9,1.181-24.463,6.175-7.188,5.465-15.33,11.661-33.362,9.435-15.285-1.887-20.3-12.88-21.74-17.519a22.782,22.782,0,0,1-.829-10.031l.006-.032c0-.02,0-.039.007-.059A24.254,24.254,0,0,1,610.536,192.224Zm90.687,32.491c-3.976,3.853-9.962,5.233-17.8,4.1-7.869-1.141-14.985,2.838-22.523,7.047-10.51,5.869-22.425,12.521-39.227,6.59-11.522-4.067-15.224-14.7-16.137-23.922,3.006,5.92,9.445,13.742,22.789,15.389a61.709,61.709,0,0,0,7.561.488c14.392,0,22.035-5.81,28.349-10.61,6.342-4.821,11.347-8.629,21.331-5.611,7.578,2.292,14.709.818,19.564-4.045a16.724,16.724,0,0,0,1.367-1.56C705.888,217.792,704.115,221.912,701.223,224.715Z" fill="#fff"/>
    <path id="Path_362" data-name="Path 362" d="M637.137,207.492c6.179,0,11.02-3.7,11.02-8.41s-4.841-8.411-11.02-8.411-11.022,3.695-11.022,8.411S630.956,207.492,637.137,207.492Zm0-13.321c4.076,0,7.52,2.249,7.52,4.911s-3.444,4.91-7.52,4.91-7.522-2.249-7.522-4.91S633.06,194.171,637.137,194.171Z" fill="#fff"/>
    <path id="Path_363" data-name="Path 363" d="M632.146,224.987q2.166.154,4.137.152c13.777,0,20.833-5.329,26.6-9.685,5.41-4.085,9.681-7.312,17.975-5.724,8.47,1.622,16.4-1.832,17.657-7.7.967-4.519-2.393-10.39-14.729-13.316-12.353-2.929-30.744-6.066-45.309-6.082h-.05c-17.808,0-26.165,10.619-26.545,21.151C611.53,213.577,618.377,224.007,632.146,224.987Zm6.285-38.858h.046c14.264.016,32.342,3.1,44.505,5.988,9.889,2.345,12.705,6.409,12.113,9.177-.755,3.524-6.391,6.372-13.575,5-9.82-1.878-15.125,2.127-20.744,6.369-6.158,4.65-13.13,9.922-28.381,8.835-8.748-.623-17.4-6.865-17.013-17.59C615.7,195.054,622.953,186.129,638.431,186.129Z" fill="#fff"/>
  </g>
</svg>
